<svg width="20" height="20" viewBox="0 0 20 20" fill="none" xmlns="http://www.w3.org/2000/svg">
<g clip-path="url(#clip0_205_2632)">
<path fill-rule="evenodd" clip-rule="evenodd" d="M9.07691 3.23077C5.84817 3.23077 3.23077 5.84817 3.23077 9.07691C3.23077 12.3056 5.84817 14.9231 9.07691 14.9231C12.3056 14.9231 14.9231 12.3056 14.9231 9.07691C14.9231 5.84817 12.3056 3.23077 9.07691 3.23077ZM2 9.07691C2 5.16844 5.16844 2 9.07691 2C12.9854 2 16.1538 5.16844 16.1538 9.07691C16.1538 12.9854 12.9854 16.1538 9.07691 16.1538C5.16844 16.1538 2 12.9854 2 9.07691Z" fill="#E63036"/>
<path fill-rule="evenodd" clip-rule="evenodd" d="M13.2109 13.211C13.4512 12.9707 13.8408 12.9707 14.0812 13.211L17.8196 16.9495C18.0599 17.1898 18.0599 17.5794 17.8196 17.8198C17.5793 18.0601 17.1896 18.0601 16.9493 17.8198L13.2109 14.0813C12.9705 13.841 12.9705 13.4513 13.2109 13.211Z" fill="#E63036"/>
</g>
<defs>
<clipPath id="clip0_205_2632">
<rect width="16" height="16" fill="white" transform="translate(2 2)"/>
</clipPath>
</defs>
</svg>
